<svg width="53" height="51" viewBox="0 0 53 51" fill="none" xmlns="http://www.w3.org/2000/svg">
<path d="M10.5537 15.0996C16.3175 15.0996 21.0077 19.79 21.0078 25.5537C21.0078 31.3176 16.3176 36.0078 10.5537 36.0078C4.78995 36.0077 0.0996094 31.3175 0.0996094 25.5537C0.0997196 19.79 4.79002 15.0997 10.5537 15.0996ZM10.5537 16.2197C5.40763 16.2198 1.21984 20.4064 1.21973 25.5537C1.21973 30.7011 5.40756 34.8886 10.5537 34.8887C15.7 34.8887 19.8887 30.7012 19.8887 25.5537C19.8886 20.4063 15.6999 16.2197 10.5537 16.2197Z" fill="#3B3D40" stroke="#FFFDFB" stroke-width="0.2"/>
<path d="M7.2533 20.3788H13.849C14.1577 20.3788 14.4083 20.6297 14.4086 20.9383C14.4086 21.2471 14.1578 21.4989 13.849 21.4989H12.3109L12.433 21.659C12.7166 22.0338 12.9283 22.4637 13.0238 22.9374L13.0404 23.0174H13.8314L13.8334 23.0184H13.85C14.1587 23.0185 14.4095 23.2692 14.4095 23.578C14.4094 23.8866 14.1586 24.1375 13.85 24.1376H13.0414L13.0248 24.2176C12.7276 25.6758 11.4371 26.7762 9.89197 26.7762H8.60486L12.9262 31.0975C13.1442 31.3155 13.1448 31.6703 12.9271 31.8885C12.817 31.9972 12.674 32.0525 12.5306 32.0526C12.423 32.0526 12.3154 32.0215 12.222 31.9598L12.1342 31.8876L6.85779 26.6122V26.6112C6.83154 26.5854 6.80776 26.5575 6.78748 26.5272L6.7367 26.4305L6.73572 26.4295L6.7035 26.3241C6.68929 26.2526 6.68928 26.1787 6.7035 26.1073L6.73572 26.0028V26.0018C6.79266 25.8647 6.90283 25.7562 7.03943 25.6991L7.03846 25.6981C7.10718 25.6699 7.18097 25.6561 7.2533 25.6561H9.891C10.7945 25.6561 11.5567 25.0746 11.8431 24.2704L11.891 24.1366H7.2533C6.9445 24.1366 6.69373 23.8858 6.69373 23.577C6.69386 23.2683 6.94458 23.0174 7.2533 23.0174H11.891L11.8431 22.8836C11.5562 22.0796 10.794 21.4989 9.891 21.4989H7.2533C6.9445 21.4989 6.69373 21.2471 6.69373 20.9383C6.69397 20.6297 6.94465 20.3788 7.2533 20.3788Z" fill="#3B3D40" stroke="#FFFDFB" stroke-width="0.2"/>
<path d="M26.4976 0.770508C27.8253 0.124411 29.1086 -0.0808124 30.1001 0.729492L30.2944 0.905273L41.7085 12.3496L41.7095 12.3506C42.3249 12.9643 44.5477 15.1954 46.7466 17.4023L51.6401 22.3086C52.2984 22.9637 52.536 23.9268 52.269 24.8066L52.2085 24.9814C50.6309 29.0178 47.4998 32.2419 43.5298 33.9307L43.1431 34.0889C42.2704 34.4332 41.2855 34.2596 40.5825 33.6523L40.4458 33.5254L19.1001 12.124L19.0991 12.123L18.9243 11.9316C18.1176 10.9555 18.3236 9.66092 18.9712 8.31738C19.6577 6.8931 20.7985 5.50738 21.5347 4.59082L21.647 4.45117L21.521 4.3252L20.9067 3.70898L20.9038 3.70605L20.7505 3.57227C20.0128 2.99217 18.9693 2.9923 18.231 3.57227L18.0776 3.70605L18.0747 3.70898L14.2368 7.55664L14.2358 7.55762C13.5088 8.29478 13.4629 9.45343 14.0991 10.2432L14.2358 10.3955L14.2368 10.3965L32.1558 28.3652C32.3957 28.6051 32.4256 28.9768 32.2456 29.25L32.1558 29.3604L27.729 33.7979L27.6274 33.9004L27.6929 34.0293C28.4696 35.5612 28.0423 37.4301 26.6782 38.4697L26.5649 38.5566L26.6099 38.6914C26.9848 39.8272 26.7273 41.0711 25.9497 41.9629L25.7876 42.1367H25.7866L18.1382 49.8057C16.8459 51.09 14.7888 51.1299 13.4487 49.9258L13.3208 49.8057L10.7729 47.25C9.44436 45.9147 9.44375 43.7522 10.772 42.418L10.7729 42.4189L18.4233 34.7471L18.4224 34.7461C19.2386 33.9312 20.4129 33.587 21.5396 33.8301L21.647 33.8525L21.7241 33.7754L22.2925 33.2051C23.4313 32.0676 25.2087 31.8818 26.5571 32.7588L26.6929 32.8477L26.8081 32.7324L30.5288 29.002L30.6694 28.8604L30.5288 28.7197L13.2456 11.3916C11.9576 10.0991 11.9171 8.03051 13.1245 6.68945L13.2456 6.56152L17.0835 2.71387L17.0825 2.71289C18.4307 1.42534 20.5506 1.42565 21.8989 2.71289V2.71387L22.5132 3.3291L22.6392 3.45605L22.7788 3.34473C23.7176 2.59931 25.0875 1.4567 26.4976 0.770508ZM22.2466 35.7432C21.5111 35.0129 20.3559 34.9674 19.5679 35.6064L19.4155 35.7432H19.4146L11.7651 43.4131C11.0331 44.1484 10.9876 45.3111 11.6284 46.0996L11.7651 46.252L14.314 48.8086L14.3179 48.8115C15.059 49.5218 16.1995 49.5666 16.9907 48.9453L17.144 48.8115L17.1479 48.8086L24.7378 41.1982H24.7407L24.7993 41.1377C25.5209 40.3987 25.5658 39.2451 24.9341 38.4551L24.7993 38.3018L24.7974 38.3008L22.2476 35.7432H22.2466ZM25.9438 34.0762C25.0794 33.3752 23.8112 33.5082 23.1118 34.375L22.9937 34.5215L23.1333 34.6484L23.2358 34.7471L23.2378 34.749L25.6196 37.1367V37.4785L25.9468 37.2109C26.0009 37.1666 26.0528 37.1198 26.1021 37.0703L26.2417 36.9141C26.8968 36.102 26.8214 34.9353 26.0972 34.2148L25.9438 34.0762ZM33.9556 6.85254L31.4048 9.40723L31.4028 9.41016C31.0157 9.81124 30.9917 10.4328 31.3306 10.8613L31.4028 10.9443C31.7994 11.3559 32.4369 11.3911 32.8755 11.0449L32.9604 10.9707V10.9697C33.8721 10.0792 35.2919 10.0237 36.2671 10.8027L36.4565 10.9697C37.3852 11.8774 37.4611 13.3325 36.6714 14.3291L36.5024 14.5215L35.23 15.7979L35.2261 15.8008C34.8454 16.2005 34.8216 16.8157 35.1548 17.2422L35.2261 17.3242C35.6198 17.7384 36.2576 17.7791 36.6987 17.4355L36.7837 17.3613L36.7876 17.3584C37.7653 16.3782 39.3509 16.3781 40.3286 17.3584C41.2454 18.2777 41.3028 19.7334 40.5005 20.7197L40.3286 20.9102L37.7798 23.4658L37.7769 23.4688C37.3667 23.8954 37.3671 24.5716 37.7769 24.999V24.998C38.1723 25.4114 38.8099 25.4483 39.2495 25.1035L39.3345 25.0293L39.3374 25.0264L43.1616 21.1904C44.1404 20.2135 45.7236 20.2133 46.7036 21.1904L46.8452 21.0488L46.7036 21.1914L46.7056 21.1934C47.089 21.5632 47.6715 21.6044 48.1011 21.3174L48.4888 21.707L48.314 21.0059L48.313 21.001L48.23 20.665L48.1196 20.7695C44.5914 17.232 37.6518 10.2745 34.2388 6.85254L34.0972 6.70996L33.9556 6.85254ZM35.8364 12.7383C35.8304 12.4959 35.7461 12.262 35.5962 12.0723L35.5278 11.9932C35.1298 11.5765 34.4879 11.5373 34.0444 11.8838L33.9585 11.958L33.9565 11.959C33.0447 12.8496 31.6242 12.9055 30.6489 12.126L30.4604 11.959C29.4691 10.991 29.4491 9.40038 30.4146 8.40723L30.4136 8.40625L32.9624 5.85254L33.104 5.71094L32.9624 5.56934L29.3032 1.90039C29.0301 1.62658 28.6367 1.51746 28.2671 1.60352L28.1108 1.65234C24.4385 3.10273 21.5105 5.97399 19.981 9.60938L19.8374 9.96289L19.8364 9.96582C19.6853 10.3693 19.785 10.8239 20.0923 11.126V11.127L41.4419 32.5312C41.715 32.8062 42.1082 32.9161 42.478 32.8291L42.6343 32.7793C46.3065 31.3288 49.2347 28.4576 50.7642 24.8213L50.9077 24.4678L50.9087 24.4648C51.0413 24.1116 50.9806 23.718 50.7563 23.4229L50.6499 23.3027L49.5386 22.1885L49.3999 22.0498L49.2593 22.1846C48.267 23.1334 46.7067 23.1346 45.7134 22.1875H45.7144C45.3106 21.7839 44.6728 21.7593 44.2397 22.1123L44.1558 22.1875V22.1885L40.3306 26.0225C39.3529 27.0027 37.7673 27.0027 36.7896 26.0225C35.8728 25.1031 35.8153 23.6474 36.6177 22.6611L36.7896 22.4707L39.3394 19.9141L39.3403 19.9131C39.7398 19.5086 39.7649 18.872 39.4155 18.4385L39.3403 18.3545L39.3364 18.3506L39.2515 18.2773C38.8458 17.9597 38.2742 17.9597 37.8687 18.2773L37.7847 18.3506H37.7837C36.7915 19.2989 35.232 19.3002 34.2388 18.3535H34.2397C33.3238 17.4331 33.2664 15.9793 34.0679 14.9922L34.2397 14.8018L35.5142 13.5234C35.7207 13.3163 35.8364 13.0351 35.8364 12.7432V12.7383Z" fill="#3B3D40" stroke="white" stroke-width="0.4"/>
</svg>
