<svg width="50" height="47" viewBox="0 0 50 47" fill="none" xmlns="http://www.w3.org/2000/svg">
<path d="M43.5312 45.8819H45.9534V8.16911C45.9534 4.28099 42.8742 1.11811 39.0889 1.11811C35.1173 1.10803 31.989 4.59324 32.2244 8.64254C34.421 8.75334 36.1666 10.6067 36.1666 12.8933C36.1666 13.2055 35.9214 13.4473 35.6272 13.4473H33.9993V14.374C33.9993 15.6835 32.9599 16.7512 31.685 16.7512C30.4102 16.7512 29.3707 15.6835 29.3707 14.374V13.4473H27.733C27.429 13.4473 27.1937 13.1955 27.1937 12.8933C27.1937 10.6168 28.949 8.75334 31.1359 8.64254C30.9005 3.9788 34.5289 -0.0100538 39.0889 1.9036e-05C43.4724 1.9036e-05 47.0409 3.66654 47.0409 8.16911V45.8819H49.4631C50.179 45.8819 50.179 47 49.4631 47H43.5302C42.8241 47 42.8241 45.892 43.5302 45.8819H43.5312ZM30.4494 14.374C30.4886 16.036 32.8618 16.036 32.901 14.374V13.4473H30.4494V14.374ZM31.332 9.75055C29.8316 9.75055 28.5764 10.8686 28.3214 12.3292H35.029C34.6956 10.4959 33.107 9.56924 31.332 9.75055ZM2.94238 29.6243V26.3204C2.94238 23.9029 4.85464 21.9387 7.20818 21.9387H32.0086C34.3622 21.9387 36.2744 23.9029 36.2744 26.3204V29.6243C37.8435 29.4934 39.2556 30.7424 39.2458 32.3843V46.446C39.2458 46.7583 39.0006 47 38.7064 47H32.7735C32.4695 47 32.2342 46.7482 32.2342 46.446V45.6502H7.01205V46.446C7.01205 46.7583 6.76689 47 6.47269 47H0.539806C0.235806 47 0.000453949 46.7482 0.000453949 46.446V32.3843C-0.028965 30.7424 1.37335 29.4833 2.94238 29.6243ZM33.3129 45.8819H38.1573V32.3843C38.1573 31.4777 37.4414 30.7424 36.5686 30.7424H34.9113C34.0288 30.7424 33.3227 31.4777 33.3227 32.3843V45.8819H33.3129ZM7.00224 44.5321H32.2146V42.306H7.00224V44.5321ZM32.2244 41.188V37.6121H22.2905C21.1431 37.5919 20.1429 38.6295 20.1625 39.808V41.188H32.2244ZM7.00224 41.188H19.0641V39.808C19.0838 38.6295 18.0835 37.5919 16.9362 37.6121H7.00224V41.188ZM7.00224 32.3843V36.494H16.9362C17.9952 36.4839 19.0249 37.0581 19.6133 37.9646C20.2017 37.0581 21.2216 36.494 22.2905 36.494H32.2244V32.3742C32.2146 30.7323 33.6169 29.4833 35.1859 29.6142V26.3103C35.1859 24.5174 33.764 23.0467 32.0086 23.0467H7.20818C5.45283 23.0467 4.0309 24.5073 4.0309 26.3103V29.6142C5.60973 29.4833 7.01205 30.7323 7.00224 32.3843ZM1.05955 45.8819H5.90392V32.3843C5.90392 31.4777 5.18805 30.7424 4.31528 30.7424H2.65799C1.77542 30.7424 1.05955 31.4777 1.05955 32.3843V45.8819Z" fill="#3B3D40"/>
</svg>
