<svg width="40" height="46" viewBox="0 0 40 46" fill="none" xmlns="http://www.w3.org/2000/svg">
<path d="M33.569 14.9305C33.2581 14.4436 32.8346 14.0356 32.3441 13.7527C32.0993 13.6113 31.7884 13.6983 31.649 13.9458C31.5096 14.1943 31.5945 14.5098 31.8393 14.6512C32.1886 14.8534 32.4906 15.1436 32.714 15.4936L37.6967 23.2703C38.4793 24.4925 38.1362 26.1345 36.9328 26.9297L32.5407 29.8275L27.977 22.7036C27.8233 22.4642 27.5079 22.3962 27.2721 22.5522C27.0362 22.7081 26.9692 23.0282 27.1229 23.2675L31.6856 30.3896L25.6282 34.3863L23.5858 31.1938C23.433 30.9536 23.1176 30.8865 22.8808 31.0415C22.645 31.1966 22.578 31.5175 22.7308 31.7569L24.7731 34.9503C23.76 35.6185 27.6393 33.0598 18.7112 38.9497C18.4378 38.5961 18.3663 38.1971 17.9634 38.179C21.2843 31.7596 28.4907 17.8256 31.5632 11.8858C32.5701 9.94007 31.8304 7.52464 29.9122 6.50008L21.0252 1.76624C20.3873 1.42895 19.6734 1.2739 18.9622 1.31924C18.6808 1.33646 18.4673 1.58218 18.4852 1.86688C18.5021 2.15249 18.7451 2.371 19.0248 2.35105C19.5537 2.31841 20.0817 2.43266 20.5535 2.682L29.4387 7.41493C30.8592 8.17383 31.4078 9.96364 30.6618 11.4053L27.9672 16.6142C25.4986 15.2995 20.599 12.6883 17.8919 11.2457V3.98763C17.8919 1.7889 16.1292 0 13.9617 0H3.93022C1.76275 0 0 1.7889 0 3.98763V36.0764C0 41.0822 4.01331 45.156 8.94685 45.156C11.4699 45.156 13.75 44.0888 15.3778 42.3788C17.3398 41.085 35.2701 29.259 37.4894 27.7956C39.1637 26.6894 39.6408 24.4063 38.5517 22.7063L33.569 14.9305ZM1.01851 10.9075H16.8734V19.0614H1.01851V10.9075ZM17.8928 28.7657V22.7879L23.2856 25.663L19.551 32.883L17.8928 31.999V28.7657ZM1.01851 20.095H16.8734V28.2489H1.01851V20.095ZM17.8928 36.0764V33.1668L19.0784 33.7988L17.8919 36.0918C17.8919 36.0864 17.8919 36.0818 17.8919 36.0764H17.8928ZM27.4945 17.5282L26.7887 18.8927L23.76 24.7473L17.8928 21.6201V12.4126L27.4945 17.5282ZM3.92932 1.03363H13.9626C15.5681 1.03363 16.8734 2.35831 16.8734 3.98763V9.87297H1.01851V3.98763C1.01851 2.35831 2.32382 1.03363 3.92932 1.03363ZM1.01851 36.0764V29.2825H16.8734V36.0764C16.8734 40.5128 13.3166 44.1215 8.94596 44.1215C4.57528 44.1215 1.01851 40.5128 1.01851 36.0764ZM17.4613 38.8599C17.5024 38.9805 17.5265 38.9814 17.858 39.5118L16.9627 40.1012C17.1575 39.7032 17.3246 39.2888 17.4613 38.8599Z" fill="#3B3D40"/>
<path d="M7.11881 34.8668C5.95198 35.6366 5.62231 37.2151 6.38083 38.3992C7.14025 39.5843 8.69661 39.9171 9.86165 39.1482C11.0276 38.3793 11.3582 36.7998 10.5996 35.6157C9.84736 34.4406 8.29457 34.0906 7.11881 34.8668ZM9.30594 38.2814C8.61263 38.7393 7.68614 38.5407 7.23495 37.8353C6.78288 37.1299 6.98033 36.1905 7.67452 35.7327C8.36962 35.273 9.29521 35.4752 9.7455 36.1788C10.1976 36.8842 10.0001 37.8235 9.30594 38.2814Z" fill="#3B3D40"/>
</svg>
