<svg width="38" height="47" viewBox="0 0 38 47" fill="none" xmlns="http://www.w3.org/2000/svg">
<mask id="path-1-inside-1_49556_4266" fill="white">
<path d="M36.6389 12.4648L20.593 0.530704C20.1261 0.183825 19.5766 0 19.0052 0C18.4338 0 17.8844 0.183825 17.4175 0.530704L1.37154 12.4648C0.493045 13.118 0.00940129 14.0787 0.00940129 15.1692V16.4632H0L0.00417835 17.9172H0.00940129V36.6113C0.00940129 38.5295 1.57942 40.0905 3.50877 40.0905H4.32564C3.33537 41.9765 2.71593 44.0495 2.52059 46.2076C2.50179 46.4111 2.57073 46.6126 2.70862 46.7632C2.8465 46.9138 3.04288 47 3.24867 47H34.7607C34.9665 47 35.1619 46.9138 35.3008 46.7632C35.4397 46.6126 35.5076 46.4111 35.4888 46.2076C35.2935 44.0495 34.674 41.9765 33.6838 40.0905H34.5006C36.43 40.0905 38 38.5295 38 36.6113V15.1702C38 14.0797 37.5164 13.1191 36.6379 12.4658L36.6389 12.4648ZM33.9407 45.545H31.6385H29.3299H6.40228H4.06971C4.41965 43.1023 5.34411 40.8694 6.6979 38.974V38.9719C6.6979 38.9719 6.71356 38.9512 6.74072 38.9159C6.89532 38.7019 7.05305 38.4921 7.2181 38.2875V38.3166C7.59102 37.8638 8.1248 37.2521 8.68052 36.7307V36.7193C9.01374 36.4098 9.36264 36.1159 9.72406 35.8365C9.72406 35.8365 14.9512 31.2367 22.3813 33.0698C23.3988 33.2973 24.3775 33.6254 25.3051 34.044L26.7676 34.8042C27.1279 35.0171 27.4779 35.2456 27.8174 35.4876C27.8174 35.4876 27.8184 35.4876 27.8195 35.4876C28.137 35.714 28.4441 35.9528 28.7429 36.2021V36.2C29.9713 37.1337 31.3439 38.9709 31.3439 38.9709L31.346 39.0187C32.682 40.9037 33.595 43.121 33.9418 45.545H33.9407ZM17.0028 19.0088C17.407 19.0212 17.7455 18.7107 17.7611 18.3098L17.9596 13.0069C18.6532 12.9051 19.3593 12.9051 20.0529 13.0069L20.2514 18.3098C20.266 18.7024 20.5899 19.0098 20.9816 19.0098C20.991 19.0098 21.0004 19.0098 21.0098 19.0098C21.413 18.9952 21.7285 18.6577 21.7128 18.2558L21.553 13.9717C24.4799 15.03 26.5189 17.8466 26.5189 20.9955V21.1004H11.4936V20.9955C11.4936 17.8466 13.5326 15.03 16.4596 13.9717L16.2997 18.2558C16.2851 18.6567 16.5995 18.9942 17.0028 19.0098V19.0088ZM25.0983 22.5544C22.6968 23.3094 20.8333 23.6376 19.0052 23.6511C17.1772 23.6376 15.3137 23.3094 12.9121 22.5544H25.0993H25.0983ZM12.2269 23.863C14.8958 24.7208 16.9547 25.0906 19 25.1051H19.0104C21.0557 25.0906 23.1146 24.7198 25.7836 23.863C25.7992 24.051 25.8086 24.24 25.8086 24.429C25.8086 28.1585 22.7563 31.1942 19.0042 31.1942C15.252 31.1942 12.1997 28.1595 12.1997 24.429C12.1997 24.24 12.2102 24.051 12.2259 23.863H12.2269ZM34.5017 38.6365H32.822C32.0835 37.5263 31.206 36.4981 30.2011 35.58C28.1057 33.6659 25.5809 32.3407 22.8629 31.6948C25.4827 30.3145 27.2721 27.5758 27.2721 24.429C27.2721 24.079 27.2481 23.729 27.2031 23.3821C27.4267 23.3032 27.6544 23.2201 27.8863 23.1349C28.1736 23.029 28.3637 22.7569 28.3637 22.4526V21.8264C28.3637 21.5501 28.208 21.3092 27.9793 21.1866V20.9945C27.9793 17.0365 25.2832 13.521 21.4934 12.4253L21.4913 12.3724C21.4788 12.0442 21.2459 11.7638 20.9241 11.6911C19.6664 11.4044 18.345 11.4044 17.0863 11.6911C16.7635 11.7648 16.5306 12.0442 16.5191 12.3724L16.517 12.4253C12.7273 13.521 10.0312 17.0365 10.0312 20.9945V21.1866C9.80241 21.3092 9.64676 21.5501 9.64676 21.8264V22.4526C9.64676 22.7569 9.83688 23.029 10.1241 23.1339C10.3571 23.2191 10.5848 23.3022 10.8083 23.3811C10.7645 23.7269 10.7394 24.0769 10.7394 24.428C10.7394 27.5758 12.5288 30.3135 15.1486 31.6937C12.4295 32.3397 9.90478 33.6639 7.80934 35.579C6.80444 36.4971 5.92699 37.5242 5.18847 38.6354H3.50877C2.38584 38.6354 1.47182 37.7267 1.47182 36.6103V15.1692C1.47182 14.5388 1.74028 14.006 2.24795 13.629L18.2928 1.69493C18.5049 1.53707 18.7514 1.45398 19.0042 1.45398C19.257 1.45398 19.5035 1.53707 19.7155 1.69493L35.7615 13.628C36.2691 14.006 36.5376 14.5388 36.5376 15.1682V36.6092C36.5376 37.7257 35.6236 38.6344 34.5006 38.6344L34.5017 38.6365Z"/>
</mask>
<path d="M36.6389 12.4648L20.593 0.530704C20.1261 0.183825 19.5766 0 19.0052 0C18.4338 0 17.8844 0.183825 17.4175 0.530704L1.37154 12.4648C0.493045 13.118 0.00940129 14.0787 0.00940129 15.1692V16.4632H0L0.00417835 17.9172H0.00940129V36.6113C0.00940129 38.5295 1.57942 40.0905 3.50877 40.0905H4.32564C3.33537 41.9765 2.71593 44.0495 2.52059 46.2076C2.50179 46.4111 2.57073 46.6126 2.70862 46.7632C2.8465 46.9138 3.04288 47 3.24867 47H34.7607C34.9665 47 35.1619 46.9138 35.3008 46.7632C35.4397 46.6126 35.5076 46.4111 35.4888 46.2076C35.2935 44.0495 34.674 41.9765 33.6838 40.0905H34.5006C36.43 40.0905 38 38.5295 38 36.6113V15.1702C38 14.0797 37.5164 13.1191 36.6379 12.4658L36.6389 12.4648ZM33.9407 45.545H31.6385H29.3299H6.40228H4.06971C4.41965 43.1023 5.34411 40.8694 6.6979 38.974V38.9719C6.6979 38.9719 6.71356 38.9512 6.74072 38.9159C6.89532 38.7019 7.05305 38.4921 7.2181 38.2875V38.3166C7.59102 37.8638 8.1248 37.2521 8.68052 36.7307V36.7193C9.01374 36.4098 9.36264 36.1159 9.72406 35.8365C9.72406 35.8365 14.9512 31.2367 22.3813 33.0698C23.3988 33.2973 24.3775 33.6254 25.3051 34.044L26.7676 34.8042C27.1279 35.0171 27.4779 35.2456 27.8174 35.4876C27.8174 35.4876 27.8184 35.4876 27.8195 35.4876C28.137 35.714 28.4441 35.9528 28.7429 36.2021V36.2C29.9713 37.1337 31.3439 38.9709 31.3439 38.9709L31.346 39.0187C32.682 40.9037 33.595 43.121 33.9418 45.545H33.9407ZM17.0028 19.0088C17.407 19.0212 17.7455 18.7107 17.7611 18.3098L17.9596 13.0069C18.6532 12.9051 19.3593 12.9051 20.0529 13.0069L20.2514 18.3098C20.266 18.7024 20.5899 19.0098 20.9816 19.0098C20.991 19.0098 21.0004 19.0098 21.0098 19.0098C21.413 18.9952 21.7285 18.6577 21.7128 18.2558L21.553 13.9717C24.4799 15.03 26.5189 17.8466 26.5189 20.9955V21.1004H11.4936V20.9955C11.4936 17.8466 13.5326 15.03 16.4596 13.9717L16.2997 18.2558C16.2851 18.6567 16.5995 18.9942 17.0028 19.0098V19.0088ZM25.0983 22.5544C22.6968 23.3094 20.8333 23.6376 19.0052 23.6511C17.1772 23.6376 15.3137 23.3094 12.9121 22.5544H25.0993H25.0983ZM12.2269 23.863C14.8958 24.7208 16.9547 25.0906 19 25.1051H19.0104C21.0557 25.0906 23.1146 24.7198 25.7836 23.863C25.7992 24.051 25.8086 24.24 25.8086 24.429C25.8086 28.1585 22.7563 31.1942 19.0042 31.1942C15.252 31.1942 12.1997 28.1595 12.1997 24.429C12.1997 24.24 12.2102 24.051 12.2259 23.863H12.2269ZM34.5017 38.6365H32.822C32.0835 37.5263 31.206 36.4981 30.2011 35.58C28.1057 33.6659 25.5809 32.3407 22.8629 31.6948C25.4827 30.3145 27.2721 27.5758 27.2721 24.429C27.2721 24.079 27.2481 23.729 27.2031 23.3821C27.4267 23.3032 27.6544 23.2201 27.8863 23.1349C28.1736 23.029 28.3637 22.7569 28.3637 22.4526V21.8264C28.3637 21.5501 28.208 21.3092 27.9793 21.1866V20.9945C27.9793 17.0365 25.2832 13.521 21.4934 12.4253L21.4913 12.3724C21.4788 12.0442 21.2459 11.7638 20.9241 11.6911C19.6664 11.4044 18.345 11.4044 17.0863 11.6911C16.7635 11.7648 16.5306 12.0442 16.5191 12.3724L16.517 12.4253C12.7273 13.521 10.0312 17.0365 10.0312 20.9945V21.1866C9.80241 21.3092 9.64676 21.5501 9.64676 21.8264V22.4526C9.64676 22.7569 9.83688 23.029 10.1241 23.1339C10.3571 23.2191 10.5848 23.3022 10.8083 23.3811C10.7645 23.7269 10.7394 24.0769 10.7394 24.428C10.7394 27.5758 12.5288 30.3135 15.1486 31.6937C12.4295 32.3397 9.90478 33.6639 7.80934 35.579C6.80444 36.4971 5.92699 37.5242 5.18847 38.6354H3.50877C2.38584 38.6354 1.47182 37.7267 1.47182 36.6103V15.1692C1.47182 14.5388 1.74028 14.006 2.24795 13.629L18.2928 1.69493C18.5049 1.53707 18.7514 1.45398 19.0042 1.45398C19.257 1.45398 19.5035 1.53707 19.7155 1.69493L35.7615 13.628C36.2691 14.006 36.5376 14.5388 36.5376 15.1682V36.6092C36.5376 37.7257 35.6236 38.6344 34.5006 38.6344L34.5017 38.6365Z" fill="#3B3D40" stroke="#FFFDFB" stroke-width="0.4" mask="url(#path-1-inside-1_49556_4266)"/>
</svg>
