<svg width="46" height="48" viewBox="0 0 46 48" fill="none" xmlns="http://www.w3.org/2000/svg">
<path d="M15.2539 41.042C14.9724 41.0421 14.7434 41.2721 14.7432 41.5538C14.7432 43.9818 16.7109 45.9571 19.1299 45.9571C20.6198 45.957 21.9783 45.2123 22.7871 43.9815L22.833 43.9112L22.7725 43.8536C22.5701 43.6605 22.3731 43.4605 22.1846 43.254L22.0938 43.1543L22.0244 43.2696C21.4313 44.2701 20.3413 44.9316 19.1299 44.9317C17.2753 44.9317 15.7646 43.4162 15.7646 41.5538C15.7645 41.2721 15.5355 41.042 15.2539 41.042ZM42.3223 36.1768C42.3998 36.1879 42.4108 36.2092 42.4121 36.212C42.4171 36.2224 42.421 36.2518 42.4014 36.3204C42.3917 36.3542 42.376 36.3887 42.3613 36.4278C42.3414 36.3709 42.3243 36.3168 42.3096 36.2745C42.2965 36.2367 42.2867 36.2071 42.2822 36.1836C42.2817 36.1808 42.2816 36.1782 42.2812 36.1758L42.3223 36.1768ZM18.0283 4.27446C11.1669 5.74584 5.18049 10.2092 1.83887 16.5274L1.71777 16.7579L1.96191 16.668C4.91828 15.5814 8.2031 16.3815 10.3428 18.6426L10.2646 18.9463L10.5938 18.6172L10.5654 18.587C11.1985 16.1532 12.1065 13.4098 13.3418 10.8829C14.5868 8.33614 16.1607 6.01515 18.1123 4.45024L18.0283 4.27446ZM27.9688 4.27348L27.8857 4.44926C29.8369 6.01417 31.4101 8.33518 32.6553 10.8819C33.8999 13.4277 34.8136 16.1934 35.4473 18.6407L35.4922 18.8165L35.6172 18.6836C37.7604 16.3868 41.0684 15.5766 44.0361 16.667L44.2812 16.7569L44.1592 16.5264C40.8175 10.2083 34.8311 5.74577 27.9688 4.27348ZM23.5879 18.4737L23.7568 18.3155C26.5916 15.6542 30.8532 15.5195 33.7969 17.751L34.0361 17.9327L33.9531 17.6436C33.2017 15.0323 31.9785 11.7507 30.2783 9.03325C28.5807 6.3199 26.3919 4.14515 23.7012 3.79399L23.5879 3.77934V18.4737ZM22.2959 3.79399C19.6072 4.14434 17.4174 6.32351 15.7188 9.03911C14.0173 11.7593 12.7927 15.0419 12.0439 17.6436L11.9619 17.9307L12.2002 17.751C15.1816 15.5073 19.4256 15.6713 22.2412 18.3125L22.4092 18.4707V3.77934L22.2959 3.79399ZM22.4092 20.3038L22.3838 20.2784C22.3826 20.2769 22.3802 20.2744 22.3779 20.2715C22.3734 20.2659 22.3673 20.2586 22.3613 20.251C22.3553 20.2434 22.3495 20.2357 22.3447 20.2295L22.3369 20.2198C21.1318 18.4854 19.101 17.3721 16.8857 17.3721C14.8861 17.3721 12.9962 18.2804 11.7344 19.8233L11.4902 20.1397C11.2548 20.4658 10.9769 20.5765 10.7305 20.5655C10.5108 20.5556 10.3058 20.4488 10.166 20.2911L10.1104 20.2207C8.18299 17.465 4.53612 16.5939 1.60645 18.1153L1.3252 18.2696C0.684208 18.6428 -0.0541256 18.0335 0.128906 17.3614L0.177734 17.2256C4.13783 8.6105 12.646 2.83537 22.3115 2.57329L22.4092 2.57036V0.692429C22.4092 0.365313 22.674 0.0996552 22.999 0.0996552C23.3239 0.0998415 23.5879 0.365429 23.5879 0.692429V2.57036L23.6855 2.57329C33.1768 2.83026 41.5844 8.4119 45.6309 16.8233L45.8203 17.2256L45.8213 17.2286L45.8232 17.2325C46.1307 17.9085 45.452 18.5801 44.8047 18.335L44.6748 18.2735C41.7967 16.5982 38.1194 17.327 36.0811 19.962L35.8896 20.2237C35.5846 20.6582 34.9674 20.6755 34.6299 20.3028L34.5664 20.2237C33.316 18.4394 31.276 17.375 29.1133 17.375C27.0841 17.3751 25.1663 18.3112 23.9043 19.8975L23.6602 20.2237C23.6469 20.2429 23.6325 20.2599 23.6123 20.2842L23.5889 20.3116V25.7305L23.75 25.6075C25.1526 24.5337 26.6493 24.2253 28.374 23.9698L29.1279 23.8614C29.2244 23.8476 29.3067 23.831 29.375 23.8174C29.4149 23.8095 29.4489 23.8032 29.4775 23.7979C29.4718 23.8028 29.4673 23.8095 29.4609 23.8145C29.4044 23.8592 29.3237 23.9078 29.2158 23.9395L29.0996 23.9649C23.8189 24.7161 20.2209 29.8072 20.2207 35.1475C20.2207 41.1084 25.0526 45.9589 30.9922 45.959C35.4721 45.959 39.9885 43.2758 41.751 39.2637C41.2587 41.066 40.4542 42.6923 39.0557 43.9991L38.8584 44.1778C36.6824 46.0901 33.8883 47.1436 30.9922 47.1436C28.3068 47.1435 25.8254 46.2483 23.8271 44.7413L23.7441 44.6788L23.6855 44.7637C22.6516 46.2484 20.9702 47.1435 19.1309 47.1436C16.0619 47.1436 13.5645 44.637 13.5645 41.5557C13.5646 40.6198 14.3223 39.8595 15.2539 39.8594C16.1855 39.8594 16.9432 40.6197 16.9434 41.5557C16.9434 42.7649 17.9243 43.7491 19.1299 43.7491C20.12 43.7489 20.9812 43.0693 21.2363 42.1309L21.249 42.086L21.2217 42.0479C19.8487 40.0951 19.041 37.7134 19.041 35.1465C19.0411 32.4204 19.9635 29.786 21.6484 27.667L21.9961 27.25C22.1219 27.1064 22.2505 26.9665 22.3818 26.8291L22.4092 26.7999V20.3038Z" fill="#3B3D40" stroke="#FEF2EB" stroke-width="0.2"/>
<path d="M31.0791 22.4772C37.8783 22.4772 43.411 28.01 43.4111 34.8092C43.4111 41.6086 37.8785 47.1413 31.0791 47.1413C24.2799 47.1411 18.7471 41.6085 18.7471 34.8092C18.7473 28.0101 24.28 22.4774 31.0791 22.4772ZM31.0791 23.8317C25.0272 23.8319 20.1017 28.7558 20.1016 34.8092C20.1016 40.8628 25.0271 45.7876 31.0791 45.7878C37.1313 45.7878 42.0576 40.8629 42.0576 34.8092C42.0574 28.7557 37.1312 23.8317 31.0791 23.8317Z" fill="#3B3D40" stroke="#FEF2EB" stroke-width="0.2"/>
<path d="M26.8838 28.6933H34.6533C35.0269 28.6933 35.3301 28.9974 35.3301 29.371C35.3299 29.7444 35.0268 30.0478 34.6533 30.0478H32.8779L32.999 30.2079C33.3346 30.6513 33.5861 31.1605 33.6992 31.7216L33.7148 31.8017H34.6543C35.0279 31.8017 35.3311 32.1058 35.3311 32.4794C35.3309 32.8529 35.0278 33.1562 34.6543 33.1562H33.7168L33.7002 33.2362C33.3486 34.9622 31.821 36.2646 29.9922 36.2646H28.5186L28.6895 36.4345L33.5791 41.3251C33.81 41.556 33.8391 41.9131 33.666 42.1757L33.5791 42.2821C33.4459 42.4133 33.2728 42.4794 33.0996 42.4794C32.9697 42.4793 32.8402 42.4425 32.7275 42.3681L32.6201 42.2812L26.4062 36.0663L26.4053 36.0653L26.3203 35.9638L26.2588 35.8456L26.2578 35.8446L26.2197 35.7177C26.2025 35.6313 26.2026 35.5423 26.2197 35.456L26.2578 35.328C26.3267 35.162 26.4597 35.03 26.625 34.9608V34.9618C26.708 34.9278 26.7962 34.9101 26.8838 34.9101H29.9912C31.0476 34.9101 31.9394 34.2296 32.2744 33.289L32.3213 33.1552H26.8838C26.5102 33.1552 26.207 32.852 26.207 32.4784C26.2072 32.105 26.5103 31.8017 26.8838 31.8017H32.3213L32.2744 31.6679C31.939 30.7273 31.0471 30.0478 29.9912 30.0478H26.8838C26.5103 30.0478 26.2072 29.7444 26.207 29.371C26.207 28.9974 26.5102 28.6933 26.8838 28.6933Z" fill="#3B3D40" stroke="#FEF2EB" stroke-width="0.2"/>
</svg>
