<svg width="48" height="46" viewBox="0 0 48 46" fill="none" xmlns="http://www.w3.org/2000/svg">
<path d="M31.1812 7.65911V3.623C31.1812 2.38454 32.2117 1.36462 33.4631 1.36462H36.1131C37.3645 1.36462 38.3951 2.38454 38.3951 3.623V15.8558" stroke="#3B3D40" stroke-linecap="round" stroke-linejoin="round"/>
<path d="M39.5329 16.9728L24.1878 1.87433C23.01 0.708718 21.1697 0.708718 19.9919 1.87433L3.79736 17.9015V40.1939H40.6548" stroke="#3B3D40" stroke-linecap="round" stroke-linejoin="round"/>
<path d="M40.6558 34.8553L40.6558 26.6587" stroke="#3B3D40" stroke-linecap="round" stroke-linejoin="round"/>
<path d="M1 20.6698L3.79724 17.9014L19.9918 1.87421C21.1696 0.708596 23.0099 0.708596 24.1876 1.87421L38.7627 16.2987" stroke="#3B3D40" stroke-linecap="round" stroke-linejoin="round"/>
<path d="M26.5417 28.4634L25.2903 28.9734C23.3028 29.7748 22.4195 32.0331 23.2292 34.0001C24.0389 35.9671 26.3209 36.8413 28.3084 36.0399L35.3751 33.1259C37.5099 32.2517 39.939 33.1988 40.8224 35.3114L41.4849 36.987" stroke="#3B3D40" stroke-linecap="round" stroke-linejoin="round"/>
<path d="M45.1652 18.9201L46.4902 21.9798C46.9319 22.9997 46.4166 24.1653 45.386 24.6024L29.854 31.0862C28.8234 31.5233 27.6457 31.0133 27.204 29.9934L25.879 26.9337C25.4373 25.9138 25.9526 24.7481 26.9832 24.311L42.5152 17.8273C43.5458 17.4631 44.7235 17.9002 45.1652 18.9201Z" stroke="#3B3D40" stroke-linecap="round" stroke-linejoin="round"/>
<path d="M43.473 37.2076L46.0494 43.3271C46.2703 43.8371 46.0494 44.4199 45.5341 44.6384L44.2091 45.2212C43.6939 45.4398 43.105 45.2212 42.8841 44.7113L40.3077 38.5918C40.0869 38.0818 40.3077 37.499 40.823 37.2805L42.148 36.6977C42.6633 36.4791 43.2522 36.6977 43.473 37.2076Z" stroke="#3B3D40" stroke-linecap="round" stroke-linejoin="round"/>
</svg>
